Coordinates
version=1
nRows=20
nColumns=23
inDegrees=yes

Units are S.I. units (second, meters, Newtons, ...)
Angles are in degrees.

endheader
time	thorax_tilt	thorax_list	thorax_rotation	thorax_tx	thorax_ty	thorax_tz	sternoclavicular_r2	sternoclavicular_r3	unrotscap_r3	unrotscap_r2	acromioclavicular_r2	acromioclavicular_r3	acromioclavicular_r1	unrothum_r1	unrothum_r3	unrothum_r2	elv_angle	shoulder_elv	shoulder1_r2	shoulder_rot	elbow_flexion	pro_sup
      2.84400000	     -5.13957342	      0.98104141	     -9.44845062	     -0.38272663	      1.58153894	      0.07102246	     -3.10280752	      1.31241675	     -1.31413856	      3.10116841	     -0.62790726	      5.07375693	      2.28082063	     -2.28152328	     -5.07553608	      0.62802905	    -28.70163220	     12.81557031	     28.70161140	     28.14021176	     23.33615677	     12.37577875
      2.84800000	     -5.17629379	      0.97015774	     -9.46010198	     -0.38292565	      1.58154523	      0.07123954	     -3.10702422	      1.31412433	     -1.31606307	      3.10547255	     -0.62874955	      5.08069763	      2.28404764	     -2.28463519	     -5.08264135	      0.62892683	    -28.70798372	     12.83090646	     28.70652419	     28.13663914	     23.32214407	     12.37621667
      2.85200000	     -5.35110459	      0.94076193	     -9.50327117	     -0.38184888	      1.58110005	      0.07094362	     -3.12313808	      1.32061271	     -1.32320857	      3.12163285	     -0.63193646	      5.10685921	      2.29612908	     -2.29628428	     -5.10923766	      0.63227040	    -28.73714122	     12.89979082	     28.73718930	     28.12270777	     23.24912955	     12.37982672
      2.85600000	     -5.44820792	      0.94252753	     -9.52193040	     -0.38148513	      1.58101355	      0.07102271	     -3.12878685	      1.32332748	     -1.32527672	      3.12718575	     -0.63317633	      5.11635481	      2.30015255	     -2.30046237	     -5.11806325	      0.63329257	    -28.76505744	     12.92290893	     28.76500186	     28.11569660	     23.20374451	     12.38536404
      2.86000000	     -5.45760429	      0.93873485	     -9.52530542	     -0.38168030	      1.58109934	      0.07115957	     -3.12984191	      1.32393715	     -1.32552012	      3.12818807	     -0.63337619	      5.11793142	      2.30056778	     -2.30153916	     -5.11982337	      0.63350644	    -28.76692344	     12.92734921	     28.76718568	     28.11445930	     23.19955955	     12.38567431
      2.86400000	     -5.58452595	      0.91408829	     -9.55507982	     -0.38108036	      1.58082361	      0.07104804	     -3.14284123	      1.32928285	     -1.33123114	      3.14124041	     -0.63600975	      5.13929515	      2.31043980	     -2.31085246	     -5.14112059	      0.63615056	    -28.79479929	     12.98099791	     28.79474024	     28.10108881	     23.13497211	     12.39040913
      2.86800000	     -5.59474863	      0.91094858	     -9.55855167	     -0.38128197	      1.58093303	      0.07118873	     -3.14392259	      1.32986970	     -1.33153154	      3.14228671	     -0.63621588	      5.14094037	      2.31094014	     -2.31190826	     -5.14294487	      0.63637470	    -28.79695082	     12.98559704	     28.79715387	     28.09993279	     23.13022537	     12.39081527
      2.87200000	     -5.72497605	      0.89571379	     -9.58738056	     -0.38065261	      1.58069952	      0.07110202	     -3.15684826	      1.33524477	     -1.33714227	      3.15524506	     -0.63885207	      5.16222535	      2.32071946	     -2.32118319	     -5.16404270	      0.63898110	    -28.82757413	     13.03885370	     28.82753695	     28.08760904	     23.06085684	     12.39664329
      2.87600000	     -5.73598542	      0.89257052	     -9.59101584	     -0.38086523	      1.58081852	      0.07125231	     -3.15799918	      1.33575961	     -1.33760125	      3.15640660	     -0.63907246	      5.16404672	      2.32145371	     -2.32217001	     -5.16603182	      0.63923339	    -28.83044238	     13.04393240	     28.83025891	     28.08629536	     23.05525851	     12.39719027
      2.88000000	     -5.85691919	      0.87846971	     -9.61791292	     -0.38026994	      1.58059772	      0.07116403	     -3.17063396	      1.34102069	     -1.34307064	      3.16905026	     -0.64161557	      5.18468352	      2.33087141	     -2.33133979	     -5.18674038	      0.64180636	    -28.86089990	     13.09594301	     28.86083282	     28.07415959	     22.98737732	     12.40323081
      2.88400000	     -5.86606751	      0.87545946	     -9.62110467	     -0.38047018	      1.58073036	      0.07129935	     -3.17168474	      1.34160572	     -1.34334687	      3.17006499	     -0.64183503	      5.18636235	      2.33140852	     -2.33231314	     -5.18843699	      0.64200439	    -28.86326089	     13.10039821	     28.86331945	     28.07302184	     22.98267600	     12.40370832
      2.88800000	     -5.98057013	      0.86237315	     -9.64687941	     -0.37991517	      1.58054295	      0.07122089	     -3.18412618	      1.34678341	     -1.34874090	      3.18253003	     -0.64435936	      5.20678719	      2.34076739	     -2.34128074	     -5.20877657	      0.64452315	    -28.89531278	     13.15157269	     28.89524929	     28.06099852	     22.91551903	     12.41019047
      2.89200000	     -5.98857598	      0.85950216	     -9.64977855	     -0.38010277	      1.58066996	      0.07134767	     -3.18511009	      1.34735629	     -1.34897232	      3.18346226	     -0.64454880	      5.20826989	      2.34117553	     -2.34225894	     -5.21039714	      0.64471841	    -28.89747814	     13.15570874	     28.89769980	     28.05995389	     22.91129273	     12.41064468
      2.89600000	     -6.09525127	      0.84730981	     -9.67404353	     -0.37958960	      1.58052622	      0.07127795	     -3.19717959	      1.35238815	     -1.35419023	      3.19555184	     -0.64699926	      5.22808689	      2.35023959	     -2.35097018	     -5.23012059	      0.64715956	    -28.93229098	     13.20539130	     28.93230431	     28.04810037	     22.84531440	     12.41781583
      2.90000000	     -6.15682626	      0.84778933	     -9.68493727	     -0.37938858	      1.58052899	      0.07134161	     -3.20373594	      1.35517163	     -1.35697939	      3.20212202	     -0.64835160	      5.23893109	      2.35516162	     -2.35571971	     -5.24078935	      0.64846805	    -28.97053615	     13.23278694	     28.97064097	     28.03849036	     22.79266705	     12.42692704
      2.90400000	     -6.16347156	      0.84382913	     -9.68770804	     -0.37958436	      1.58067031	      0.07146748	     -3.20484265	      1.35566160	     -1.35742826	      3.20323327	     -0.64855511	      5.24064750	      2.35585676	     -2.35666606	     -5.24270978	      0.64871603	    -28.97326940	     13.23679949	     28.97304933	     28.03727304	     22.78874864	     12.42741994
      2.90800000	     -6.24237087	      0.82080242	     -9.70877544	     -0.37921692	      1.58052354	      0.07136610	     -3.21590355	      1.36026531	     -1.36222119	      3.21431326	     -0.65077788	      5.25872321	      2.36410731	     -2.36469698	     -5.26085204	      0.65097447	    -29.00324824	     13.28298948	     29.00313007	     28.02582051	     22.73733917	     12.43309965
      2.91200000	     -6.25002534	      0.81749997	     -9.71168148	     -0.37939022	      1.58066910	      0.07148811	     -3.21698587	      1.36083332	     -1.36255152	      3.21536986	     -0.65099689	      5.26044535	      2.36470775	     -2.36566311	     -5.26262441	      0.65118808	    -29.00614712	     13.28737767	     29.00611235	     28.02481509	     22.73319731	     12.43365151
      2.91600000	     -6.26499379	      0.81160840	     -9.71692087	     -0.37954940	      1.58080372	      0.07161241	     -3.21904871	      1.36170545	     -1.36343475	      3.21745847	     -0.65141180	      5.26382974	      2.36621335	     -2.36723702	     -5.26607165	      0.65161894	    -29.01042768	     13.29613998	     29.01013649	     28.02311627	     22.72575307	     12.43429412
      2.92000000	     -6.37678471	      0.78672269	     -9.74745984	     -0.37888819	      1.58054365	      0.07141699	     -3.23414056	      1.36798966	     -1.36996703	      3.23256822	     -0.65446074	      5.28855804	      2.37752864	     -2.37812248	     -5.29074017	      0.65468091	    -29.04617130	     13.35820344	     29.04626430	     28.01254380	     22.66404509	     12.44023727
